<svg width="572" height="158" viewBox="0 0 572 158" fill="none" xmlns="http://www.w3.org/2000/svg">
<path d="M132.776 99.0527L160.06 34.79H181.85L145.039 121.41C142.359 127.88 139.369 133.37 136.069 137.89C132.769 142.4 129.079 146.13 124.989 149.06C120.899 151.989 116.32 154.13 111.26 155.47C106.19 156.81 100.549 157.479 94.3193 157.479V137.34C98.4693 137.34 102.13 136.939 105.31 136.149C108.479 135.349 111.29 134.07 113.729 132.3C116.169 130.53 118.399 128.24 120.409 125.43C122.429 122.62 124.29 119.139 126 114.989L130.579 104.37H113.18L83.6992 34.7793H105.489L132.776 99.0527ZM237.72 34.7793C243.95 34.7793 249.81 35.9398 255.3 38.2598C260.789 40.5797 265.549 43.7496 269.579 47.7793H269.59C273.62 51.8093 276.789 56.5397 279.109 61.9697C281.429 67.3997 282.59 73.4097 282.59 79.6396C282.59 85.8696 281.459 91.7297 279.199 97.2197C276.939 102.71 273.889 107.47 270.039 111.5C266.199 115.53 261.649 118.7 256.399 121.02C251.149 123.34 245.469 124.5 239.369 124.5C234.249 124.5 229.48 123.7 225.09 122.12C220.69 120.54 216.659 118.339 212.999 115.529V157.47H192.859V67.7393H212.999V79.6396C212.999 83.0596 213.64 86.2996 214.92 89.3496C216.2 92.3996 217.94 95.0198 220.14 97.2197C222.33 99.4197 224.93 101.159 227.92 102.439C230.91 103.719 234.31 104.359 237.72 104.359C241.13 104.359 244.339 103.719 247.329 102.439C250.319 101.159 252.939 99.4196 255.199 97.2197C257.459 95.0297 259.23 92.3996 260.51 89.3496C261.79 86.2997 262.43 83.1796 262.43 79.6396C262.43 76.0997 261.79 72.8298 260.51 69.8398C259.23 66.8498 257.459 64.2596 255.199 62.0596C252.939 59.8596 250.319 58.1198 247.329 56.8398C244.339 55.56 241.14 54.92 237.72 54.9199H192.85V34.7793H237.72ZM536.029 91.9199C536.029 95.8298 537.16 98.8801 539.42 101.08V101.06C541.68 103.259 544.82 104.359 548.85 104.359V124.5C543.23 124.5 538.14 123.399 533.56 121.199C528.98 118.999 525.289 115.95 522.479 112.04C518.45 115.95 513.78 118.999 508.47 121.199C503.16 123.399 497.389 124.5 491.159 124.5C484.929 124.5 479.069 123.339 473.579 121.02C468.089 118.71 463.33 115.53 459.3 111.5C455.27 107.48 452.099 102.71 449.779 97.2197C447.459 91.7297 446.3 85.9796 446.3 79.6396C446.3 73.2997 447.459 67.3997 449.779 61.9697C452.089 56.5397 455.27 51.8093 459.3 47.7793C463.32 43.7496 468.089 40.5797 473.579 38.2598C479.069 35.9398 484.929 34.7793 491.159 34.7793H536.029V91.9199ZM317.38 41.0195C320.55 38.4596 324.15 36.4693 328.18 35.0693C332.21 33.6594 336.54 32.96 341.18 32.96C346.79 32.96 351.95 33.9696 356.649 35.9795C361.349 37.9894 365.379 40.7995 368.739 44.3994L368.75 44.4102C372.1 48.01 374.729 52.3197 376.619 57.3193C378.509 62.3293 379.46 67.7601 379.46 73.6201V122.699H359.319V73.6201C359.319 67.3901 357.42 62.4195 353.64 58.6895C349.85 54.9595 344.789 53.0996 338.439 53.0996C332.089 53.0996 326.999 54.9695 323.149 58.6895C319.299 62.4195 317.38 67.3901 317.38 73.6201V122.699H297.239V0H317.38V41.0195ZM37.7197 32.96C43.4596 32.96 48.6799 33.7797 53.3799 35.4297C58.0797 37.0797 62.1098 39.3997 65.4697 42.3896C68.8197 45.3796 71.4499 48.9497 73.3398 53.0996C75.2298 57.2496 76.1797 61.8301 76.1797 66.8301H56.0391C56.0391 62.4401 54.2694 58.8999 50.7295 56.21C47.1896 53.52 42.4897 52.1797 36.6299 52.1797C31.8699 52.1797 27.9293 53.1892 24.8193 55.1992C21.7093 57.2092 20.1494 59.7398 20.1494 62.7998C20.1495 65.8597 21.6796 68.5096 24.7295 70.7695C27.7795 73.0295 31.5997 75.2492 36.1797 77.4492C40.7497 79.6492 45.6998 81.9702 51.0098 84.4102C56.3196 86.8501 61.26 89.7793 65.8398 93.1992L65.8291 93.21C70.409 96.6299 74.2293 100.72 77.2793 105.479C80.3293 110.239 81.8593 115.98 81.8594 122.689H61.7197C61.7197 118.18 60.1895 114.42 57.1396 111.43C54.0796 108.44 50.2695 105.719 45.6895 103.279C41.1195 100.839 36.1693 98.4895 30.8594 96.2295C25.5494 93.9795 20.6092 91.3792 16.0293 88.4492C11.4495 85.5193 7.62902 82.0098 4.5791 77.9199C1.52912 73.8299 0 68.7896 0 62.8096C9.05293e-06 58.5397 0.949938 54.5701 2.83984 50.9102C4.72984 47.2502 7.34996 44.0796 10.71 41.3896C14.0598 38.6998 18.0296 36.6201 22.6094 35.1602C27.1894 33.6902 31.9797 32.96 37.7197 32.96ZM438.97 53.0996C432.5 53.0996 427.37 54.8702 423.59 58.4102C419.8 61.9601 417.909 66.7799 417.909 72.8799V122.689H397.77V73.6094C397.77 67.3796 398.749 61.7696 400.699 56.7598C402.649 51.7498 405.429 47.4794 409.029 43.9395V43.9492C412.629 40.4093 416.959 37.6898 422.029 35.7998C427.099 33.9098 432.74 32.96 438.97 32.96V53.0996ZM491.17 54.9297C487.75 54.9297 484.55 55.5696 481.56 56.8496C478.57 58.1296 475.949 59.8694 473.689 62.0693C471.429 64.2593 469.66 66.8597 468.38 69.8496C467.1 72.8495 466.46 76.2295 466.46 79.6494C466.46 83.0694 467.1 86.3094 468.38 89.3594C469.66 92.4093 471.43 95.0295 473.689 97.2295C475.939 99.4295 478.57 101.169 481.56 102.449C484.55 103.729 487.63 104.37 491.17 104.37C494.71 104.37 497.98 103.729 500.97 102.449C503.96 101.169 506.55 99.4294 508.75 97.2295C510.95 95.0396 512.69 92.4092 513.97 89.3594C515.25 86.3095 515.89 83.0693 515.89 79.6494V54.9297H491.17ZM560.59 10.5996C560.73 10.6196 560.86 10.6494 561 10.6494C561.72 10.6994 562.429 10.8401 563.119 11.04C564.829 11.54 566.33 12.3994 567.63 13.6094C568.59 14.5094 569.37 15.54 569.97 16.71C570.68 18.0899 571.08 19.5497 571.17 21.0996L571.189 21.1094C571.249 22.1493 571.169 23.1695 570.949 24.1895C570.709 25.2594 570.319 26.2793 569.779 27.2393C569.219 28.2293 568.529 29.1194 567.699 29.8994C566.589 30.9494 565.32 31.7395 563.89 32.2695C563 32.5995 562.08 32.8201 561.13 32.9102C560.35 32.9902 559.559 32.9796 558.779 32.8896C558.089 32.8096 557.399 32.6699 556.729 32.46C555.43 32.06 554.24 31.4295 553.17 30.5996C552.36 29.9696 551.649 29.2399 551.039 28.4199C550.279 27.3799 549.699 26.2495 549.329 25.0195C549.109 24.2796 548.959 23.5296 548.899 22.7598C548.889 22.6098 548.87 22.4693 548.85 22.3193V21.2793C548.86 21.2494 548.869 21.2195 548.869 21.1797C548.899 20.5797 548.979 19.9796 549.109 19.3896C549.459 17.7898 550.129 16.3399 551.119 15.04C551.999 13.89 553.049 12.9392 554.279 12.1992C555.749 11.3092 557.35 10.7896 559.06 10.6396C559.209 10.6297 559.369 10.6096 559.529 10.5996H560.59ZM560.17 12.3301C554.83 12.2501 550.579 16.54 550.569 21.75C550.56 26.9898 554.76 31.1595 559.89 31.2295C565.22 31.2994 569.52 26.9796 569.47 21.7197C569.45 16.5599 565.29 12.4003 560.17 12.3301ZM561.159 16.6201C561.999 16.6201 562.8 16.8095 563.52 17.2295C564.209 17.6294 564.65 18.2195 564.81 19.0293C564.95 19.7493 564.91 20.4397 564.71 21.1396C564.59 21.5596 564.34 21.8897 564.02 22.1797V22.1895C563.65 22.5295 563.219 22.7401 562.739 22.8701C562.559 22.9201 562.379 22.9694 562.18 23.0293C563.01 24.3293 563.83 25.6195 564.67 26.9395H563.01C562.98 26.9395 562.929 26.9099 562.909 26.8799C562.139 25.6799 561.369 24.4793 560.609 23.2793C560.549 23.1995 560.499 23.1592 560.39 23.1592H558.3V26.9297H556.59V16.6201H561.159ZM558.369 18H558.3V21.6992H558.46C559.06 21.6992 559.67 21.6792 560.27 21.6992C560.859 21.7192 561.429 21.6399 561.989 21.46V21.4697C562.469 21.3198 562.819 21.0397 563.029 20.5898C563.209 20.2099 563.209 19.7898 563.149 19.3799C563.099 19.0999 562.989 18.8499 562.77 18.6699C562.58 18.52 562.38 18.3797 562.17 18.2598C561.82 18.0498 561.419 18.0295 561.029 18.0195C560.139 17.9895 559.259 18 558.369 18Z" fill="white"/>
<path d="M12.8295 98.8796C9.16951 98.8796 6.10951 100.1 3.66951 102.54C1.22951 104.98 0.00952148 108.03 0.00952148 111.7C0.00952148 115.37 1.22951 118.42 3.66951 120.86C6.10951 123.3 9.15951 124.52 12.8295 124.52C16.4995 124.52 19.5395 123.3 21.9895 120.86C24.4295 118.42 25.6495 115.37 25.6495 111.7C25.6495 108.03 24.4295 104.99 21.9895 102.54C19.5495 100.1 16.4995 98.8796 12.8295 98.8796Z" fill="#B3ED1F"/>
</svg>
