<svg width="572" height="158" viewBox="0 0 572 158" fill="none" xmlns="http://www.w3.org/2000/svg">
<path d="M132.767 99.0537L160.05 34.79H181.84L145.03 121.41C142.35 127.88 139.36 133.371 136.06 137.891C132.76 142.4 129.069 146.131 124.979 149.061C120.89 151.99 116.31 154.131 111.25 155.471C106.18 156.811 100.54 157.48 94.3096 157.48V137.341C98.4595 137.341 102.12 136.94 105.3 136.15C108.47 135.35 111.28 134.071 113.72 132.301C116.16 130.531 118.39 128.241 120.4 125.431C122.42 122.621 124.28 119.14 125.99 114.99L130.57 104.37H113.17L83.6904 34.7803H105.479L132.767 99.0537ZM237.71 34.79C243.94 34.7901 249.8 35.9505 255.29 38.2705C260.78 40.5905 265.54 43.7601 269.57 47.79H269.58C273.61 51.82 276.78 56.5505 279.1 61.9805C281.42 67.4105 282.58 73.4204 282.58 79.6504C282.58 85.8803 281.45 91.7405 279.19 97.2305C276.93 102.72 273.88 107.481 270.03 111.511C266.19 115.541 261.64 118.71 256.39 121.03C251.14 123.35 245.46 124.511 239.36 124.511C234.24 124.511 229.47 123.711 225.08 122.131C220.68 120.551 216.65 118.35 212.99 115.54V157.48H192.85V67.75H212.99V79.6504C212.99 83.0704 213.63 86.3104 214.91 89.3604C216.19 92.4103 217.93 95.0305 220.13 97.2305C222.32 99.4305 224.92 101.17 227.91 102.45C230.9 103.73 234.3 104.37 237.71 104.37C241.12 104.37 244.33 103.73 247.32 102.45C250.31 101.17 252.931 99.4304 255.19 97.2305C257.45 95.0405 259.22 92.4103 260.5 89.3604C261.78 86.3104 262.42 83.1904 262.42 79.6504C262.42 76.1105 261.78 72.8405 260.5 69.8506C259.22 66.8607 257.45 64.2703 255.19 62.0703C252.931 59.8704 250.31 58.1306 247.32 56.8506C244.33 55.5706 241.13 54.9307 237.71 54.9307H192.84V34.79H237.71ZM12.8203 98.8809C16.4899 98.881 19.5397 100.1 21.9795 102.54C24.4195 104.99 25.6396 108.03 25.6396 111.7C25.6396 115.37 24.4195 118.42 21.9795 120.86C19.5296 123.3 16.49 124.52 12.8203 124.521C9.15036 124.521 6.10014 123.3 3.66016 120.86C1.22016 118.42 0 115.37 0 111.7C4.0581e-05 108.03 1.2202 104.98 3.66016 102.54C6.10011 100.1 9.16047 98.8809 12.8203 98.8809ZM536.02 91.9209C536.02 95.8306 537.15 98.8802 539.41 101.08V101.061C541.67 103.26 544.81 104.36 548.84 104.36V124.5C543.22 124.5 538.13 123.4 533.55 121.2C528.97 119 525.28 115.95 522.47 112.04C518.44 115.95 513.77 119 508.46 121.2C503.15 123.4 497.38 124.5 491.15 124.5C484.921 124.5 479.06 123.34 473.57 121.021C468.08 118.711 463.32 115.53 459.29 111.5C455.26 107.48 452.09 102.711 449.77 97.2207C447.45 91.7308 446.29 85.9805 446.29 79.6406C446.29 73.3008 447.45 67.4006 449.77 61.9707C452.08 56.5407 455.26 51.8103 459.29 47.7803C463.31 43.7503 468.08 40.5807 473.57 38.2607C479.06 35.9408 484.92 34.7803 491.15 34.7803H536.02V91.9209ZM317.37 41.0205C320.54 38.4605 324.14 36.4703 328.17 35.0703C332.2 33.6603 336.53 32.96 341.17 32.96C346.78 32.96 351.94 33.9705 356.64 35.9805C361.34 37.9904 365.37 40.8005 368.729 44.4004L368.74 44.4102C372.09 48.0101 374.72 52.3203 376.61 57.3203C378.5 62.3302 379.45 67.7603 379.45 73.6201V122.7H359.31V73.6201C359.31 67.3902 357.41 62.4204 353.63 58.6904C349.84 54.9604 344.78 53.1006 338.43 53.1006C332.08 53.1006 326.99 54.9705 323.14 58.6904C319.29 62.4204 317.37 67.3903 317.37 73.6201V122.7H297.229V0H317.37V41.0205ZM37.7197 32.96C43.4597 32.96 48.6799 33.7807 53.3799 35.4307C58.0798 37.0807 62.1097 39.4006 65.4697 42.3906C68.8197 45.3806 71.4499 48.9506 73.3398 53.1006C75.2298 57.2505 76.1796 61.8303 76.1797 66.8301H56.04C56.04 62.4402 54.2694 58.8999 50.7295 56.21C47.1895 53.5202 42.4896 52.1807 36.6299 52.1807C31.8701 52.1807 27.9302 53.1904 24.8203 55.2002C21.7103 57.2102 20.1504 59.7408 20.1504 62.8008C20.1505 65.8606 21.6797 68.5106 24.7295 70.7705C27.7794 73.0305 31.5998 75.2502 36.1797 77.4502C40.7496 79.6502 45.6998 81.9702 51.0098 84.4102C56.3197 86.8501 61.2599 89.7802 65.8398 93.2002L65.8301 93.21C70.4101 96.63 74.2303 100.72 77.2803 105.48C80.3302 110.24 81.8604 115.981 81.8604 122.69H61.7197C61.7197 118.18 60.1896 114.421 57.1396 111.431C54.0797 108.441 50.2703 105.72 45.6904 103.28C41.1206 100.84 36.1702 98.4904 30.8604 96.2305C25.5504 93.9805 20.6102 91.3801 16.0303 88.4502C11.4504 85.5203 7.63003 82.0107 4.58008 77.9209C1.53011 73.8309 3.1231e-05 68.7905 0 62.8105C0 58.5405 0.949844 54.5702 2.83984 50.9102C4.72983 47.2503 7.35004 44.0806 10.71 41.3906C14.06 38.7006 18.0304 36.6202 22.6104 35.1602C27.1902 33.6903 31.98 32.96 37.7197 32.96ZM438.96 53.1006C432.49 53.1006 427.36 54.8703 423.58 58.4102C419.79 61.9602 417.9 66.7809 417.9 72.8809V122.69H397.76V73.6104C397.76 67.3804 398.74 61.7707 400.69 56.7607C402.64 51.7508 405.42 47.4804 409.02 43.9404V43.9502C412.619 40.4103 416.95 37.6908 422.02 35.8008C427.09 33.9108 432.73 32.96 438.96 32.96V53.1006ZM491.16 54.9307C487.74 54.9307 484.54 55.5706 481.55 56.8506C478.56 58.1306 475.94 59.8704 473.68 62.0703C471.42 64.2603 469.65 66.8606 468.37 69.8506C467.09 72.8506 466.45 76.2304 466.45 79.6504C466.45 83.0704 467.09 86.3104 468.37 89.3604C469.65 92.4103 471.42 95.0305 473.68 97.2305C475.93 99.4304 478.56 101.17 481.55 102.45C484.54 103.73 487.62 104.37 491.16 104.37C494.7 104.37 497.97 103.73 500.96 102.45C503.95 101.17 506.54 99.4304 508.74 97.2305C510.94 95.0405 512.68 92.4103 513.96 89.3604C515.24 86.3104 515.88 83.0704 515.88 79.6504V54.9307H491.16ZM560.58 10.6006C560.72 10.6206 560.85 10.6504 560.99 10.6504C561.71 10.7004 562.42 10.8401 563.11 11.04C564.82 11.5401 566.32 12.4004 567.62 13.6104C568.58 14.5103 569.36 15.5401 569.96 16.71C570.67 18.09 571.07 19.5506 571.16 21.1006L571.18 21.1104C571.24 22.1503 571.16 23.1704 570.94 24.1904C570.7 25.2604 570.31 26.2802 569.77 27.2402C569.21 28.2301 568.52 29.1205 567.69 29.9004C566.58 30.9504 565.31 31.7405 563.88 32.2705C562.99 32.6005 562.07 32.8201 561.12 32.9102C560.34 32.9902 559.55 32.9806 558.77 32.8906C558.08 32.8106 557.39 32.6699 556.72 32.46C555.42 32.06 554.23 31.4304 553.16 30.6006C552.35 29.9707 551.64 29.2407 551.03 28.4209C550.27 27.381 549.69 26.2504 549.32 25.0205C549.1 24.2806 548.95 23.5306 548.89 22.7607C548.88 22.6107 548.86 22.4703 548.84 22.3203V21.2803C548.85 21.2504 548.86 21.2205 548.86 21.1807C548.89 20.5808 548.97 19.9805 549.1 19.3906C549.45 17.7906 550.12 16.34 551.11 15.04C551.99 13.8903 553.04 12.9401 554.27 12.2002C555.739 11.3102 557.34 10.7906 559.05 10.6406C559.2 10.6306 559.36 10.6106 559.52 10.6006H560.58ZM560.16 12.3301C554.82 12.2501 550.57 16.5402 550.56 21.75C550.55 26.99 554.75 31.1605 559.88 31.2305C565.21 31.3005 569.51 26.9806 569.46 21.7207C569.44 16.5608 565.28 12.4002 560.16 12.3301ZM561.15 16.6201C561.99 16.6202 562.79 16.8106 563.51 17.2305C564.2 17.6304 564.64 18.2203 564.8 19.0303C564.94 19.7503 564.9 20.4406 564.7 21.1406C564.58 21.5606 564.33 21.8907 564.01 22.1807V22.1904C563.64 22.5304 563.209 22.7401 562.729 22.8701C562.55 22.9201 562.37 22.9703 562.17 23.0303C563 24.3303 563.82 25.6204 564.66 26.9404H563C562.97 26.9404 562.921 26.9107 562.9 26.8809C562.13 25.6809 561.36 24.4803 560.6 23.2803C560.54 23.2004 560.49 23.1602 560.38 23.1602H558.29V26.9307H556.58V16.6201H561.15ZM558.37 18H558.3V21.7002H558.46C559.06 21.7002 559.67 21.6802 560.27 21.7002C560.86 21.7202 561.43 21.64 561.99 21.46V21.4707C562.47 21.3207 562.82 21.0406 563.03 20.5908C563.21 20.211 563.21 19.7907 563.15 19.3809C563.1 19.1009 562.99 18.8509 562.77 18.6709C562.58 18.5209 562.38 18.3807 562.17 18.2607C561.82 18.0508 561.42 18.0305 561.03 18.0205C560.14 17.9905 559.26 18 558.37 18Z" fill="#B3ED1F"/>
</svg>
