<svg width="572" height="158" viewBox="0 0 572 158" fill="none" xmlns="http://www.w3.org/2000/svg">
<path d="M12.8302 98.8801C9.1702 98.8801 6.11017 100.1 3.67017 102.54C1.23017 104.98 0.0101318 108.03 0.0101318 111.7C0.0101318 115.37 1.23017 118.42 3.67017 120.86C6.11017 123.3 9.1602 124.52 12.8302 124.52C16.5002 124.52 19.5401 123.3 21.9901 120.86C24.4301 118.42 25.6501 115.37 25.6501 111.7C25.6501 108.03 24.4301 104.99 21.9901 102.54C19.5501 100.1 16.5002 98.8801 12.8302 98.8801Z" fill="#B3ED1F"/>
<path d="M132.777 99.0537L160.061 34.79H181.851L145.04 121.41C142.36 127.88 139.37 133.37 136.07 137.89C132.77 142.4 129.08 146.131 124.99 149.061C120.9 151.99 116.32 154.13 111.26 155.47C106.19 156.81 100.55 157.48 94.3203 157.48V137.34C98.4703 137.34 102.131 136.94 105.311 136.15C108.48 135.35 111.291 134.07 113.73 132.3C116.17 130.53 118.4 128.24 120.41 125.43C122.43 122.62 124.29 119.14 126 114.99L130.58 104.37H113.181L83.7002 34.7803H105.49L132.777 99.0537ZM237.721 34.79C243.95 34.7901 249.81 35.9506 255.3 38.2705C260.79 40.5905 265.55 43.7601 269.58 47.79H269.59C273.62 51.82 276.79 56.5505 279.11 61.9805C281.43 67.4104 282.59 73.4206 282.59 79.6504C282.59 85.8803 281.46 91.7406 279.2 97.2305C276.94 102.72 273.89 107.48 270.04 111.51C266.2 115.54 261.65 118.71 256.4 121.03C251.15 123.35 245.47 124.51 239.37 124.51C234.25 124.51 229.48 123.71 225.09 122.13C220.69 120.55 216.66 118.35 213 115.54V157.48H192.86V67.75H213V79.6504C213 83.0703 213.64 86.3105 214.92 89.3604C216.2 92.4103 217.941 95.0305 220.141 97.2305C222.33 99.4302 224.93 101.17 227.92 102.45C230.91 103.73 234.311 104.37 237.721 104.37C241.13 104.37 244.34 103.73 247.33 102.45C250.32 101.17 252.94 99.4304 255.2 97.2305C257.46 95.0406 259.23 92.4102 260.51 89.3604C261.79 86.3105 262.431 83.1902 262.431 79.6504C262.431 76.1104 261.79 72.8396 260.51 69.8496C259.23 66.8599 257.46 64.2702 255.2 62.0703C252.94 59.8703 250.32 58.1296 247.33 56.8496C244.34 55.5697 241.14 54.9297 237.721 54.9297H192.851V34.79H237.721ZM536.03 91.9199C536.03 95.8299 537.16 98.8801 539.42 101.08V101.061C541.68 103.26 544.821 104.36 548.851 104.36V124.5C543.231 124.5 538.14 123.4 533.561 121.2C528.981 119 525.29 115.95 522.48 112.04C518.451 115.95 513.781 119 508.471 121.2C503.161 123.4 497.39 124.5 491.16 124.5C484.93 124.5 479.07 123.34 473.58 121.021C468.09 118.711 463.33 115.53 459.3 111.5C455.27 107.48 452.1 102.71 449.78 97.2197C447.46 91.7298 446.3 85.9796 446.3 79.6396C446.3 73.2998 447.46 67.3996 449.78 61.9697C452.09 56.54 455.27 51.8101 459.3 47.7803C463.32 43.7503 468.09 40.5798 473.58 38.2598C479.07 35.9398 484.93 34.7803 491.16 34.7803H536.03V91.9199ZM317.38 41.0205C320.55 38.4605 324.151 36.4703 328.181 35.0703C332.211 33.6604 336.541 32.96 341.181 32.96C346.79 32.96 351.951 33.9705 356.65 35.9805C361.35 37.9905 365.38 40.8005 368.74 44.4004L368.75 44.4102C372.1 48.0102 374.73 52.3203 376.62 57.3203C378.51 62.3303 379.46 67.7602 379.46 73.6201V122.7H359.32V73.6201C359.32 67.3904 357.42 62.4204 353.641 58.6904C349.851 54.9605 344.79 53.0997 338.44 53.0996C332.09 53.0996 327 54.9704 323.15 58.6904C319.3 62.4204 317.38 67.3901 317.38 73.6201V122.7H297.24V0H317.38V41.0205ZM37.7207 32.96C43.4604 32.96 48.6801 33.7798 53.3799 35.4297C58.0799 37.0797 62.1107 39.3996 65.4707 42.3896C68.8205 45.3795 71.4499 48.9499 73.3398 53.0996C75.2298 57.2496 76.1807 61.8301 76.1807 66.8301H56.04C56.04 62.4402 54.2703 58.8999 50.7305 56.21C47.1905 53.52 42.4899 52.1797 36.6299 52.1797C31.87 52.1797 27.9303 53.1902 24.8203 55.2002C21.7104 57.2101 20.1505 59.7399 20.1504 62.7998C20.1504 65.8598 21.6805 68.5105 24.7305 70.7705C27.7804 73.0304 31.6009 75.2503 36.1807 77.4502C40.7505 79.6501 45.7 81.9703 51.0098 84.4102C56.3197 86.8501 61.2599 89.7802 65.8398 93.2002L65.8301 93.21C70.4101 96.63 74.2303 100.72 77.2803 105.48C80.3301 110.24 81.8604 115.981 81.8604 122.69H61.7207C61.7207 118.18 60.1906 114.42 57.1406 111.43C54.0807 108.44 50.2703 105.72 45.6904 103.28C41.1205 100.84 36.1702 98.4904 30.8604 96.2305C25.5504 93.9805 20.6102 91.3802 16.0303 88.4502C11.4503 85.5202 7.63008 82.0099 4.58008 77.9199C1.53023 73.8301 8.32866e-05 68.7903 0 62.8105C0 58.5406 0.949928 54.5701 2.83984 50.9102C4.72984 47.2502 7.34996 44.0796 10.71 41.3896C14.06 38.6997 18.0304 36.6202 22.6104 35.1602C27.1903 33.6902 31.9808 32.96 37.7207 32.96ZM438.971 53.0996C432.501 53.0996 427.37 54.8702 423.59 58.4102C419.8 61.9601 417.91 66.7801 417.91 72.8799V122.69H397.771V73.6104C397.771 67.3804 398.75 61.7698 400.7 56.7598C402.65 51.7499 405.43 47.4804 409.03 43.9404V43.9502C412.63 40.4102 416.96 37.6898 422.03 35.7998C427.1 33.9099 432.741 32.96 438.971 32.96V53.0996ZM491.17 54.9297C487.75 54.9297 484.55 55.5698 481.561 56.8496C478.571 58.1296 475.95 59.8703 473.69 62.0703C471.43 64.2602 469.66 66.8597 468.38 69.8496C467.1 72.8496 466.46 76.2304 466.46 79.6504C466.46 83.0703 467.1 86.3105 468.38 89.3604C469.66 92.4103 471.43 95.0305 473.69 97.2305C475.94 99.4303 478.571 101.17 481.561 102.45C484.55 103.73 487.63 104.37 491.17 104.37C494.71 104.37 497.981 103.73 500.971 102.45C503.96 101.17 506.55 99.4303 508.75 97.2305C510.95 95.0405 512.691 92.4103 513.971 89.3604C515.251 86.3105 515.891 83.0703 515.891 79.6504V54.9297H491.17ZM560.59 10.5996C560.73 10.6196 560.86 10.6504 561 10.6504C561.72 10.7004 562.43 10.84 563.12 11.04C564.83 11.54 566.33 12.4004 567.63 13.6104C568.59 14.5103 569.371 15.54 569.971 16.71C570.681 18.0898 571.08 19.5498 571.17 21.0996L571.19 21.1104C571.25 22.1502 571.17 23.1705 570.95 24.1904C570.71 25.2603 570.32 26.2803 569.78 27.2402C569.22 28.2302 568.53 29.1204 567.7 29.9004C566.59 30.9502 565.32 31.7405 563.891 32.2705C563.001 32.6005 562.08 32.8202 561.13 32.9102C560.35 32.9901 559.56 32.9796 558.78 32.8896C558.09 32.8097 557.4 32.6699 556.73 32.46C555.43 32.06 554.24 31.4296 553.17 30.5996C552.36 29.9697 551.65 29.2398 551.04 28.4199C550.28 27.3801 549.7 26.2503 549.33 25.0205C549.11 24.2805 548.96 23.5298 548.9 22.7598C548.89 22.61 548.871 22.4701 548.851 22.3203V21.2803C548.861 21.2503 548.87 21.2197 548.87 21.1797C548.9 20.5798 548.98 19.9795 549.11 19.3896C549.46 17.7898 550.13 16.3399 551.12 15.04C552 13.89 553.05 12.9402 554.28 12.2002C555.75 11.3102 557.351 10.7896 559.061 10.6396C559.21 10.6296 559.37 10.6096 559.53 10.5996H560.59ZM560.17 12.3301C554.83 12.2502 550.58 16.5401 550.57 21.75C550.56 26.99 554.761 31.1605 559.891 31.2305C565.22 31.3002 569.521 26.9796 569.471 21.7197C569.451 16.5599 565.29 12.4001 560.17 12.3301ZM561.16 16.6201C562 16.6201 562.801 16.8105 563.521 17.2305C564.21 17.6305 564.651 18.2205 564.811 19.0303C564.95 19.7501 564.91 20.4398 564.71 21.1396C564.59 21.5595 564.34 21.8898 564.021 22.1797V22.1904C563.651 22.5304 563.22 22.7401 562.74 22.8701C562.56 22.9201 562.381 22.9703 562.181 23.0303C563.011 24.3301 563.83 25.6206 564.67 26.9404H563.01C562.98 26.9402 562.93 26.9098 562.91 26.8799C562.14 25.68 561.37 24.4801 560.61 23.2803C560.55 23.2004 560.5 23.1603 560.391 23.1602H558.3V26.9297H556.59V16.6201H561.16ZM558.37 18.0098H558.3V21.71H558.46C559.06 21.71 559.671 21.69 560.271 21.71C560.86 21.7299 561.43 21.6497 561.99 21.4697V21.4805C562.47 21.3305 562.82 21.0496 563.03 20.5996C563.21 20.2197 563.21 19.7995 563.15 19.3896C563.1 19.1098 562.99 18.8596 562.771 18.6797C562.581 18.5297 562.38 18.3905 562.17 18.2705C561.82 18.0605 561.42 18.0403 561.03 18.0303C560.14 18.0003 559.26 18.0098 558.37 18.0098Z" fill="black"/>
</svg>
