<svg width="572" height="158" viewBox="0 0 572 158" fill="none" xmlns="http://www.w3.org/2000/svg">
<path d="M132.767 99.0537L160.05 34.79H181.84L145.03 121.41C142.35 127.88 139.36 133.371 136.06 137.891C132.76 142.401 129.069 146.131 124.979 149.061C120.89 151.99 116.31 154.131 111.25 155.471C106.18 156.811 100.54 157.48 94.3096 157.48V137.341C98.4596 137.341 102.12 136.94 105.3 136.15C108.47 135.35 111.28 134.071 113.72 132.301C116.16 130.531 118.389 128.241 120.399 125.431C122.419 122.621 124.28 119.14 125.99 114.99L130.57 104.37H113.17L83.6895 34.7803H105.479L132.767 99.0537ZM237.71 34.79C243.94 34.7901 249.8 35.9505 255.29 38.2705C260.78 40.5905 265.54 43.7601 269.57 47.79H269.58C273.61 51.82 276.78 56.5505 279.1 61.9805C281.42 67.4105 282.58 73.4204 282.58 79.6504C282.58 85.8804 281.449 91.7405 279.189 97.2305C276.929 102.72 273.88 107.481 270.03 111.511C266.19 115.541 261.64 118.71 256.39 121.03C251.14 123.35 245.46 124.511 239.36 124.511C234.24 124.511 229.47 123.71 225.08 122.13C220.68 120.55 216.65 118.35 212.99 115.54V157.48H192.85V67.75H212.99V79.6504C212.99 83.0704 213.63 86.3104 214.91 89.3604C216.19 92.4103 217.93 95.0305 220.13 97.2305C222.32 99.4304 224.92 101.17 227.91 102.45C230.9 103.73 234.3 104.37 237.71 104.37C241.12 104.37 244.33 103.73 247.32 102.45C250.31 101.17 252.93 99.4302 255.189 97.2305C257.449 95.0405 259.22 92.4104 260.5 89.3604C261.78 86.3104 262.42 83.1903 262.42 79.6504C262.42 76.1105 261.78 72.8405 260.5 69.8506C259.22 66.8606 257.449 64.2703 255.189 62.0703C252.93 59.8705 250.31 58.1305 247.32 56.8506C244.33 55.5706 241.13 54.9307 237.71 54.9307H192.84V34.79H237.71ZM12.8203 98.8809C16.4899 98.881 19.5397 100.1 21.9795 102.54C24.4195 104.99 25.6396 108.03 25.6396 111.7C25.6396 115.37 24.4195 118.42 21.9795 120.86C19.5296 123.3 16.49 124.52 12.8203 124.521C9.1504 124.521 6.10013 123.3 3.66016 120.86C1.22016 118.42 0 115.37 0 111.7C3.71996e-05 108.03 1.22019 104.98 3.66016 102.54C6.1001 100.1 9.16049 98.8809 12.8203 98.8809ZM536.02 91.9199C536.02 95.8299 537.15 98.8801 539.41 101.08V101.061C541.67 103.26 544.81 104.36 548.84 104.36V124.5C543.22 124.5 538.13 123.4 533.55 121.2C528.97 119 525.28 115.95 522.47 112.04C518.44 115.95 513.77 119 508.46 121.2C503.15 123.4 497.379 124.5 491.149 124.5C484.92 124.5 479.06 123.34 473.57 121.021C468.08 118.711 463.32 115.53 459.29 111.5C455.26 107.48 452.09 102.711 449.77 97.2207C447.45 91.7308 446.29 85.9805 446.29 79.6406C446.29 73.3008 447.45 67.4006 449.77 61.9707C452.08 56.5407 455.26 51.8103 459.29 47.7803C463.31 43.7504 468.08 40.5807 473.57 38.2607C479.06 35.9409 484.92 34.7803 491.149 34.7803H536.02V91.9199ZM317.38 41.0205C320.55 38.4605 324.15 36.4703 328.18 35.0703C332.21 33.6603 336.54 32.96 341.18 32.96C346.79 32.96 351.949 33.9705 356.649 35.9805C361.349 37.9905 365.38 40.8004 368.74 44.4004L368.75 44.4102C372.1 48.0102 374.73 52.3203 376.62 57.3203C378.51 62.3302 379.46 67.7602 379.46 73.6201V122.7H359.32V73.6201C359.32 67.3902 357.42 62.4204 353.64 58.6904C349.85 54.9604 344.789 53.1006 338.439 53.1006C332.09 53.1007 326.999 54.9705 323.149 58.6904C319.3 62.4204 317.38 67.3904 317.38 73.6201V122.7H297.24V0H317.38V41.0205ZM37.7197 32.96C43.4597 32.96 48.6799 33.7807 53.3799 35.4307C58.0798 37.0807 62.1098 39.4007 65.4697 42.3906C68.8197 45.3806 71.4499 48.9506 73.3398 53.1006C75.2297 57.2505 76.1797 61.8303 76.1797 66.8301H56.04C56.04 62.4402 54.2694 58.8999 50.7295 56.21C47.1896 53.5202 42.4896 52.1807 36.6299 52.1807C31.8701 52.1807 27.9302 53.1904 24.8203 55.2002C21.7103 57.2102 20.1494 59.7408 20.1494 62.8008C20.1496 65.8605 21.6797 68.5106 24.7295 70.7705C27.7795 73.0305 31.5998 75.2502 36.1797 77.4502C40.7497 79.6502 45.6998 81.9702 51.0098 84.4102C56.3197 86.8501 61.2599 89.7802 65.8398 93.2002L65.8301 93.21C70.4101 96.63 74.2303 100.72 77.2803 105.48C80.3301 110.24 81.8604 115.981 81.8604 122.69H61.7197C61.7197 118.18 60.1896 114.421 57.1396 111.431C54.0796 108.441 50.2695 105.72 45.6895 103.28C41.1197 100.84 36.1701 98.4904 30.8604 96.2305C25.5505 93.9805 20.6102 91.3801 16.0303 88.4502C11.4503 85.5202 7.63008 82.0099 4.58008 77.9199C1.53019 73.83 3.64387e-05 68.7904 0 62.8105C0 58.5405 0.949844 54.5702 2.83984 50.9102C4.72983 47.2502 7.35003 44.0806 10.71 41.3906C14.06 38.7006 18.0304 36.6202 22.6104 35.1602C27.1902 33.6903 31.98 32.96 37.7197 32.96ZM438.96 53.1006C432.49 53.1006 427.36 54.8703 423.58 58.4102C419.79 61.9601 417.9 66.7801 417.899 72.8799V122.69H397.76V73.6104C397.76 67.3806 398.74 61.7706 400.689 56.7607C402.639 51.7508 405.42 47.4804 409.02 43.9404V43.9502C412.619 40.4103 416.95 37.6908 422.02 35.8008C427.09 33.9108 432.73 32.96 438.96 32.96V53.1006ZM491.16 54.9307C487.74 54.9307 484.54 55.5706 481.55 56.8506C478.56 58.1306 475.94 59.8703 473.68 62.0703C471.42 64.2603 469.65 66.8606 468.37 69.8506C467.09 72.8506 466.45 76.2304 466.45 79.6504C466.45 83.0704 467.09 86.3104 468.37 89.3604C469.65 92.4103 471.42 95.0305 473.68 97.2305C475.93 99.4305 478.56 101.17 481.55 102.45C484.54 103.73 487.62 104.37 491.16 104.37C494.7 104.37 497.97 103.73 500.96 102.45C503.95 101.17 506.54 99.4304 508.74 97.2305C510.94 95.0405 512.68 92.4103 513.96 89.3604C515.24 86.3104 515.88 83.0704 515.88 79.6504V54.9307H491.16ZM560.59 10.6006C560.73 10.6206 560.86 10.6504 561 10.6504C561.72 10.7004 562.43 10.8401 563.12 11.04C564.83 11.5401 566.33 12.4004 567.63 13.6104C568.59 14.5102 569.37 15.5401 569.97 16.71C570.68 18.09 571.08 19.5506 571.17 21.1006L571.189 21.1104C571.249 22.1504 571.17 23.1704 570.95 24.1904C570.71 25.2603 570.32 26.2803 569.78 27.2402C569.22 28.2302 568.53 29.1204 567.7 29.9004C566.59 30.9504 565.32 31.7405 563.89 32.2705C563 32.6005 562.08 32.8202 561.13 32.9102C560.35 32.9901 559.56 32.9806 558.78 32.8906C558.09 32.8106 557.399 32.67 556.729 32.46C555.43 32.06 554.24 31.4304 553.17 30.6006C552.36 29.9706 551.65 29.2399 551.04 28.4199C550.28 27.38 549.7 26.2504 549.33 25.0205C549.11 24.2806 548.959 23.5306 548.899 22.7607C548.889 22.6107 548.87 22.4703 548.85 22.3203V21.2803C548.86 21.2504 548.87 21.2205 548.87 21.1807C548.9 20.5807 548.98 19.9806 549.11 19.3906C549.46 17.7906 550.13 16.34 551.12 15.04C552 13.8902 553.05 12.9401 554.28 12.2002C555.75 11.3104 557.35 10.7906 559.06 10.6406C559.21 10.6306 559.37 10.6106 559.53 10.6006H560.59ZM560.16 12.3301C554.82 12.2501 550.57 16.5402 550.56 21.75C550.55 26.99 554.75 31.1605 559.88 31.2305C565.21 31.3004 569.51 26.9805 569.46 21.7207C569.44 16.5608 565.28 12.4003 560.16 12.3301ZM561.149 16.6201C561.989 16.6201 562.79 16.8105 563.51 17.2305C564.2 17.6305 564.64 18.2203 564.8 19.0303C564.94 19.7503 564.9 20.4406 564.7 21.1406C564.58 21.5606 564.33 21.8907 564.01 22.1807V22.1904C563.64 22.5304 563.209 22.7401 562.729 22.8701C562.55 22.9201 562.37 22.9703 562.17 23.0303C563 24.3303 563.82 25.6204 564.66 26.9404H563C562.97 26.9404 562.919 26.9099 562.899 26.8799C562.13 25.68 561.36 24.4801 560.6 23.2803C560.54 23.2004 560.49 23.1602 560.38 23.1602H558.29V26.9307H556.58V16.6201H561.149ZM558.37 18H558.3V21.7002H558.46C559.06 21.7002 559.67 21.6802 560.27 21.7002C560.86 21.7202 561.43 21.64 561.99 21.46V21.4707C562.47 21.3207 562.82 21.0406 563.03 20.5908C563.21 20.2108 563.209 19.7899 563.149 19.3799C563.099 19.1001 562.989 18.8498 562.77 18.6699C562.58 18.5201 562.38 18.3806 562.17 18.2607C561.82 18.0508 561.42 18.0305 561.03 18.0205C560.14 17.9905 559.26 18 558.37 18Z" fill="black"/>
</svg>
