<svg width="48" height="48" viewBox="0 0 48 48" fill="none" xmlns="http://www.w3.org/2000/svg">
<path d="M6.89007 34.104C5.23098 34.104 3.8477 34.657 2.74307 35.7631C1.63559 36.8706 1.08398 38.251 1.08398 39.9101C1.08398 41.5692 1.63559 42.9525 2.74307 44.0571C3.84913 45.1631 5.23098 45.7162 6.89007 45.7162C8.54915 45.7162 9.93101 45.1631 11.0371 44.0571C12.1431 42.951 12.6962 41.5692 12.6962 39.9101C12.6962 38.251 12.1431 36.8692 11.0371 35.7631C9.92958 34.657 8.54915 34.104 6.89007 34.104Z" fill="#B3ED1F"/>
<path d="M18.1675 4.24182C20.7669 4.24182 23.1311 4.61456 25.2603 5.36194C27.388 6.1093 29.213 7.15961 30.7349 8.51428C32.2554 9.87042 33.4439 11.4886 34.3013 13.3678C35.1587 15.2483 35.5874 17.3221 35.5874 19.5885H26.4634C26.4634 17.5979 25.6614 15.9945 24.0581 14.777C22.4549 13.5609 20.3259 12.9518 17.6724 12.9518C15.516 12.9518 13.7322 13.4092 12.3218 14.3209C10.9114 15.2341 10.2066 16.38 10.2066 17.7633C10.2066 19.1466 10.8975 20.35 12.2808 21.3717C13.6625 22.3962 15.3912 23.4041 17.4644 24.4C19.5393 25.396 21.7791 26.4463 24.1841 27.5524C26.5903 28.6583 28.8295 29.9854 30.9029 31.5328L30.8999 31.5348C32.9734 33.0838 34.7012 34.936 36.0845 37.0924C37.4663 39.2487 38.1587 41.8476 38.1587 44.8883H29.0337C29.0336 42.8436 28.3422 41.1428 26.9605 39.7867C25.5772 38.4322 23.8493 37.2023 21.7759 36.0963C19.701 34.9903 17.4621 33.9266 15.0572 32.902C12.6507 31.8788 10.4109 30.7041 8.33743 29.3766C6.26407 28.0491 4.53465 26.4604 3.15286 24.6071C1.76959 22.7551 1.07963 20.4727 1.07962 17.7633C1.07962 15.8285 1.5084 14.0307 2.36575 12.3717C3.22316 10.7126 4.41124 9.27672 5.93314 8.0592C7.45359 6.84314 9.25128 5.90097 11.3247 5.23792C13.398 4.57353 15.5685 4.24185 18.1675 4.24182ZM42.5396 2.29749C42.8539 2.32034 43.161 2.38028 43.4624 2.46741C44.2055 2.68319 44.8594 3.05774 45.4253 3.58362C45.8438 3.97217 46.1834 4.42084 46.4419 4.92932C46.7477 5.52951 46.921 6.16544 46.9624 6.8385C46.9896 7.29148 46.9551 7.73778 46.8579 8.17932C46.755 8.6464 46.5854 9.08936 46.3511 9.50647C46.1082 9.93653 45.8064 10.3221 45.4478 10.6608C44.9662 11.1152 44.4141 11.46 43.7925 11.6901C43.404 11.8343 43.0056 11.926 42.5943 11.9674C42.2542 12.0017 41.9138 11.9982 41.5738 11.9596C41.2694 11.9253 40.9717 11.8641 40.6802 11.774C40.1145 11.5997 39.6001 11.3293 39.1343 10.9664C38.7829 10.6935 38.4738 10.3783 38.2095 10.0211C37.8765 9.57241 37.6268 9.08044 37.4654 8.54456C37.3682 8.22309 37.3012 7.89593 37.2769 7.56018C37.2726 7.49588 37.2635 7.43263 37.2564 7.36975V6.91956C37.2592 6.90411 37.2651 6.89007 37.2652 6.87463C37.2752 6.61172 37.3106 6.35111 37.3677 6.09534C37.522 5.40227 37.8126 4.7706 38.2427 4.20471C38.6214 3.70602 39.0789 3.29426 39.6148 2.97131C40.2563 2.58559 40.9495 2.35983 41.6939 2.29553C41.7624 2.28982 41.8314 2.28269 41.8999 2.27698H42.3609C42.4209 2.28412 42.4796 2.2932 42.5396 2.29749ZM42.1783 3.026C39.859 2.9917 38.0107 4.85815 38.0064 7.1217C38.0023 9.3994 39.8304 11.2128 42.0581 11.2428V11.2408C44.373 11.2723 46.2419 9.39663 46.2222 7.10901C46.2122 4.86407 44.4032 3.0575 42.1783 3.026ZM42.6138 4.89221C42.9768 4.89221 43.3243 4.97343 43.6372 5.15491C43.9373 5.32925 44.1292 5.58657 44.1978 5.93811C44.2592 6.25104 44.242 6.55413 44.1548 6.85706C44.102 7.03987 43.9901 7.1811 43.8531 7.30823V7.30725C43.6931 7.45578 43.5045 7.54553 43.2974 7.60413C43.2188 7.62699 43.1394 7.64917 43.0523 7.67346C43.4109 8.23931 43.7699 8.80067 44.1343 9.37366C43.8873 9.37366 43.6516 9.37508 43.4146 9.37366C43.4003 9.37366 43.3782 9.3606 43.3697 9.34631C43.0353 8.82478 42.7021 8.30339 42.3706 7.78186C42.3478 7.74614 42.3236 7.72913 42.2779 7.72913H41.4175C41.4048 7.72919 41.3907 7.73203 41.3697 7.73206V9.3717H40.6275V4.89221H42.6138ZM41.4009 5.48987C41.3924 5.48987 41.3838 5.49233 41.3726 5.49377V7.10022H42.2281C42.4839 7.10879 42.7298 7.0753 42.9742 6.9967V6.99866C43.1828 6.93006 43.3358 6.80681 43.4273 6.61389C43.5043 6.44819 43.5042 6.26802 43.4771 6.08948C43.4585 5.96809 43.4111 5.85704 43.314 5.77991C43.2325 5.71417 43.1443 5.65648 43.0542 5.60217C42.9014 5.51078 42.7243 5.50339 42.5572 5.49768C42.1728 5.48339 41.7867 5.48987 41.4009 5.48987Z" fill="white"/>
</svg>
