<svg width="48" height="48" viewBox="0 0 48 48" fill="none" xmlns="http://www.w3.org/2000/svg">
<path d="M6.83898 34.104C5.1799 34.104 3.79661 34.657 2.69198 35.7631C1.5845 36.8706 1.0329 38.251 1.0329 39.9101C1.0329 41.5692 1.5845 42.9525 2.69198 44.0571C3.79804 45.1631 5.1799 45.7162 6.83898 45.7162C8.49807 45.7162 9.87993 45.1631 10.986 44.0571C12.092 42.951 12.6451 41.5692 12.6451 39.9101C12.6451 38.251 12.092 36.8691 10.986 35.7631C9.8785 34.657 8.49807 34.104 6.83898 34.104Z" fill="#B3ED1F"/>
<path d="M18.1165 4.24084C20.7158 4.24084 23.08 4.61359 25.2092 5.36096C27.3369 6.10833 29.162 7.15867 30.6838 8.51331C32.2041 9.86933 33.3929 11.4869 34.2502 13.3658C35.1076 15.2464 35.5364 17.3202 35.5364 19.5865H26.4124C26.4123 17.596 25.6104 15.9925 24.0071 14.775C22.4037 13.559 20.274 12.9508 17.6204 12.9508C15.4643 12.9509 13.681 13.4074 12.2708 14.319C10.8605 15.232 10.1557 16.3783 10.1555 17.7614C10.1555 19.1445 10.8458 20.3481 12.2288 21.3698C13.6106 22.3943 15.34 23.4021 17.4133 24.3981C19.4883 25.3941 21.728 26.4444 24.1331 27.5504C26.5394 28.6564 28.7784 29.9843 30.8518 31.5319L30.8489 31.5328C32.9223 33.0818 34.6502 34.9342 36.0334 37.0905C37.4153 39.2468 38.1077 41.8464 38.1077 44.8873H28.9827C28.9827 42.8424 28.2913 41.1419 26.9094 39.7858C25.5261 38.4311 23.7983 37.2004 21.7249 36.0944C19.6501 34.9884 17.4109 33.9255 15.0061 32.901C12.5996 31.8778 10.3599 30.7032 8.28638 29.3756C6.21289 28.0481 4.48366 26.4585 3.10181 24.6051C1.71867 22.7532 1.02856 20.4706 1.02856 17.7614C1.02863 15.8266 1.45736 14.0287 2.3147 12.3698C3.17206 10.7109 4.35938 9.27466 5.8811 8.05725C7.40144 6.84127 9.19943 5.89999 11.2727 5.23694C13.3461 4.57247 15.5172 4.24087 18.1165 4.24084ZM42.4885 2.29749C42.8028 2.32034 43.1099 2.38027 43.4114 2.46741C44.1545 2.68319 44.8074 3.05775 45.3733 3.58362C45.792 3.97228 46.1322 4.42063 46.3909 4.92932C46.6967 5.52951 46.8699 6.16544 46.9114 6.8385C46.9385 7.29148 46.9041 7.73778 46.8069 8.17932C46.704 8.64641 46.5343 9.08936 46.3 9.50647C46.0572 9.93652 45.7553 10.3221 45.3967 10.6608C44.9152 11.1152 44.3631 11.46 43.7415 11.6901C43.353 11.8343 42.9545 11.926 42.5432 11.9674C42.2031 12.0017 41.8628 11.9982 41.5227 11.9596C41.2183 11.9253 40.9207 11.8641 40.6292 11.774C40.0634 11.5997 39.549 11.3293 39.0833 10.9664C38.7318 10.6935 38.4228 10.3783 38.1584 10.0211C37.8255 9.57241 37.5758 9.08044 37.4143 8.54456C37.3172 8.22309 37.2501 7.89593 37.2258 7.56018C37.2215 7.49588 37.2125 7.43263 37.2053 7.36975V6.91956C37.2082 6.90411 37.214 6.89007 37.2141 6.87463C37.2241 6.61172 37.2595 6.35111 37.3167 6.09534C37.471 5.40227 37.7615 4.7706 38.1917 4.20471C38.5703 3.70603 39.0279 3.29425 39.5637 2.97131C40.2053 2.5856 40.8984 2.35983 41.6428 2.29553C41.7112 2.28983 41.7795 2.28268 41.8479 2.27698H42.3098C42.3698 2.28412 42.4285 2.2932 42.4885 2.29749ZM42.1272 3.02405C39.808 2.98975 37.9597 4.85628 37.9553 7.11975C37.951 9.3976 39.7792 11.2108 42.0071 11.2408V11.2399C44.322 11.2713 46.1911 9.39488 46.1711 7.10706C46.1611 4.86214 44.3521 3.05557 42.1272 3.02405ZM42.5627 4.89221C42.9257 4.89221 43.2732 4.97342 43.5862 5.15491C43.8862 5.32922 44.0771 5.58667 44.1458 5.93811C44.2072 6.25103 44.1909 6.55413 44.1038 6.85706C44.0509 7.03984 43.9391 7.18112 43.802 7.30823V7.30725C43.6421 7.45576 43.4534 7.54553 43.2463 7.60413C43.1677 7.62699 43.0884 7.64917 43.0012 7.67346C43.3599 8.23928 43.7189 8.80069 44.0833 9.37366C43.8362 9.37366 43.6006 9.37508 43.3635 9.37366C43.3492 9.37366 43.3272 9.3606 43.3186 9.34631C42.9842 8.82478 42.6511 8.3034 42.3196 7.78186C42.2967 7.74614 42.2725 7.72913 42.2268 7.72913H41.3665C41.3538 7.72917 41.3396 7.73202 41.3186 7.73206V9.3717H40.5764V4.89221H42.5627ZM41.3499 5.48987C41.3413 5.48987 41.332 5.49235 41.3206 5.49377V7.10022H42.177C42.4328 7.10879 42.6787 7.0753 42.9231 6.9967V6.99866C43.1317 6.93006 43.2848 6.80678 43.3762 6.61389C43.4533 6.4482 43.4532 6.26801 43.426 6.08948C43.4074 5.96811 43.36 5.85704 43.2629 5.77991C43.1815 5.71419 43.0932 5.65646 43.0032 5.60217C42.8504 5.51079 42.6732 5.50339 42.5061 5.49768C42.1218 5.48339 41.7356 5.48987 41.3499 5.48987Z" fill="black"/>
</svg>
